<?xml version="1.0" encoding="UTF-8" standalone="no"?>
<!DOCTYPE svg PUBLIC "-//W3C//DTD SVG 1.1//EN"
 "http://www.w3.org/Graphics/SVG/1.1/DTD/svg11.dtd">
<!-- Generated by graphviz version 2.40.1 (20161225.0304)
 -->
<!-- Pages: 1 -->
<svg width="129pt" height="410pt"
 viewBox="0.00 0.00 129.39 409.60" xmlns="http://www.w3.org/2000/svg" xmlns:xlink="http://www.w3.org/1999/xlink">
<g id="graph0" class="graph" transform="scale(1 1) rotate(0) translate(4 405.6)">
<polygon fill="#ffffff" stroke="transparent" points="-4,4 -4,-405.6 125.3906,-405.6 125.3906,4 -4,4"/>
<!-- user_input -->
<g id="node1" class="node">
<title>user_input</title>
<polygon fill="none" stroke="#000000" points="121.5865,-401.4019 -.1959,-401.4019 -.1959,-360.1981 121.5865,-360.1981 121.5865,-401.4019"/>
<text text-anchor="middle" x="60.6953" y="-385" font-family="Times,serif" font-size="14.00" fill="#000000">На вход:</text>
<text text-anchor="middle" x="60.6953" y="-368.2" font-family="Times,serif" font-size="14.00" fill="#000000">[p1]</text>
</g>
<!-- program1 -->
<g id="node2" class="node">
<title>program1</title>
<ellipse fill="none" stroke="#000000" cx="60.6953" cy="-306" rx="48.6578" ry="18"/>
<text text-anchor="middle" x="60.6953" y="-301.8" font-family="Times,serif" font-size="14.00" fill="#000000">program1</text>
</g>
<!-- user_input&#45;&gt;program1 -->
<g id="edge1" class="edge">
<title>user_input&#45;&gt;program1</title>
<path fill="none" stroke="#000000" d="M60.6953,-359.964C60.6953,-352.0614 60.6953,-342.9223 60.6953,-334.4373"/>
<polygon fill="#000000" stroke="#000000" points="64.1954,-334.1816 60.6953,-324.1816 57.1954,-334.1816 64.1954,-334.1816"/>
</g>
<!-- program1_program2 -->
<g id="node4" class="node">
<title>program1_program2</title>
<polygon fill="none" stroke="#000000" points="87.6953,-252 33.6953,-252 33.6953,-216 87.6953,-216 87.6953,-252"/>
<text text-anchor="middle" x="60.6953" y="-229.8" font-family="Times,serif" font-size="14.00" fill="#000000">p2</text>
</g>
<!-- program1&#45;&gt;program1_program2 -->
<g id="edge2" class="edge">
<title>program1&#45;&gt;program1_program2</title>
<path fill="none" stroke="#000000" d="M60.6953,-287.8314C60.6953,-280.131 60.6953,-270.9743 60.6953,-262.4166"/>
<polygon fill="#000000" stroke="#000000" points="64.1954,-262.4132 60.6953,-252.4133 57.1954,-262.4133 64.1954,-262.4132"/>
</g>
<!-- program2 -->
<g id="node3" class="node">
<title>program2</title>
<ellipse fill="none" stroke="#000000" cx="60.6953" cy="-162" rx="48.6578" ry="18"/>
<text text-anchor="middle" x="60.6953" y="-157.8" font-family="Times,serif" font-size="14.00" fill="#000000">program2</text>
</g>
<!-- program2_program3 -->
<g id="node6" class="node">
<title>program2_program3</title>
<polygon fill="none" stroke="#000000" points="87.6953,-108 33.6953,-108 33.6953,-72 87.6953,-72 87.6953,-108"/>
<text text-anchor="middle" x="60.6953" y="-85.8" font-family="Times,serif" font-size="14.00" fill="#000000">p2, p3</text>
</g>
<!-- program2&#45;&gt;program2_program3 -->
<g id="edge4" class="edge">
<title>program2&#45;&gt;program2_program3</title>
<path fill="none" stroke="#000000" d="M60.6953,-143.8314C60.6953,-136.131 60.6953,-126.9743 60.6953,-118.4166"/>
<polygon fill="#000000" stroke="#000000" points="64.1954,-118.4132 60.6953,-108.4133 57.1954,-118.4133 64.1954,-118.4132"/>
</g>
<!-- program1_program2&#45;&gt;program2 -->
<g id="edge3" class="edge">
<title>program1_program2&#45;&gt;program2</title>
<path fill="none" stroke="#000000" d="M60.6953,-215.8314C60.6953,-208.131 60.6953,-198.9743 60.6953,-190.4166"/>
<polygon fill="#000000" stroke="#000000" points="64.1954,-190.4132 60.6953,-180.4133 57.1954,-190.4133 64.1954,-190.4132"/>
</g>
<!-- program3 -->
<g id="node5" class="node">
<title>program3</title>
<ellipse fill="none" stroke="#000000" cx="60.6953" cy="-18" rx="48.6578" ry="18"/>
<text text-anchor="middle" x="60.6953" y="-13.8" font-family="Times,serif" font-size="14.00" fill="#000000">program3</text>
</g>
<!-- program2_program3&#45;&gt;program3 -->
<g id="edge5" class="edge">
<title>program2_program3&#45;&gt;program3</title>
<path fill="none" stroke="#000000" d="M60.6953,-71.8314C60.6953,-64.131 60.6953,-54.9743 60.6953,-46.4166"/>
<polygon fill="#000000" stroke="#000000" points="64.1954,-46.4132 60.6953,-36.4133 57.1954,-46.4133 64.1954,-46.4132"/>
</g>
</g>
</svg>
