<?xml version="1.0" encoding="UTF-8" standalone="no"?>
<!DOCTYPE svg PUBLIC "-//W3C//DTD SVG 1.1//EN"
 "http://www.w3.org/Graphics/SVG/1.1/DTD/svg11.dtd">
<!-- Generated by graphviz version 2.40.1 (20161225.0304)
 -->
<!-- Pages: 1 -->
<svg width="333pt" height="345pt"
 viewBox="0.00 0.00 332.93 345.39" xmlns="http://www.w3.org/2000/svg" xmlns:xlink="http://www.w3.org/1999/xlink">
<g id="graph0" class="graph" transform="scale(1 1) rotate(0) translate(4 341.3906)">
<polygon fill="#ffffff" stroke="transparent" points="-4,4 -4,-341.3906 328.9321,-341.3906 328.9321,4 -4,4"/>
<!-- user_input -->
<g id="node1" class="node">
<title>user_input</title>
<polygon fill="none" stroke="#000000" points="195.5245,-337.5865 73.742,-337.5865 73.742,-215.8041 195.5245,-215.8041 195.5245,-337.5865"/>
<text text-anchor="middle" x="134.6333" y="-280.8953" font-family="Times,serif" font-size="14.00" fill="#000000">На вход:</text>
<text text-anchor="middle" x="134.6333" y="-264.0953" font-family="Times,serif" font-size="14.00" fill="#000000">[domain]</text>
</g>
<!-- amass -->
<g id="node2" class="node">
<title>amass</title>
<ellipse fill="none" stroke="#000000" cx="34.6333" cy="-162" rx="34.767" ry="18"/>
<text text-anchor="middle" x="34.6333" y="-157.8" font-family="Times,serif" font-size="14.00" fill="#000000">amass</text>
</g>
<!-- user_input&#45;&gt;amass -->
<g id="edge1" class="edge">
<title>user_input&#45;&gt;amass</title>
<path fill="none" stroke="#000000" d="M81.7051,-215.9891C72.5226,-205.4573 63.4723,-195.0771 55.7987,-186.2757"/>
<polygon fill="#000000" stroke="#000000" points="58.3839,-183.915 49.1741,-178.6777 53.1077,-188.5152 58.3839,-183.915"/>
</g>
<!-- nmap -->
<g id="node3" class="node">
<title>nmap</title>
<ellipse fill="none" stroke="#000000" cx="128.6333" cy="-18" rx="32.4846" ry="18"/>
<text text-anchor="middle" x="128.6333" y="-13.8" font-family="Times,serif" font-size="14.00" fill="#000000">nmap</text>
</g>
<!-- user_input&#45;&gt;nmap -->
<g id="edge2" class="edge">
<title>user_input&#45;&gt;nmap</title>
<path fill="none" stroke="#000000" d="M121.5397,-215.8091C119.4965,-203.9848 117.7081,-191.6474 116.6333,-180 112.2224,-132.2031 111.3956,-119.7134 116.6333,-72 117.5764,-63.4083 119.3395,-54.1834 121.2296,-45.8325"/>
<polygon fill="#000000" stroke="#000000" points="124.6984,-46.3773 123.6393,-35.8355 117.8933,-44.7369 124.6984,-46.3773"/>
</g>
<!-- nslookup -->
<g id="node4" class="node">
<title>nslookup</title>
<ellipse fill="none" stroke="#000000" cx="171.6333" cy="-162" rx="46.3932" ry="18"/>
<text text-anchor="middle" x="171.6333" y="-157.8" font-family="Times,serif" font-size="14.00" fill="#000000">nslookup</text>
</g>
<!-- user_input&#45;&gt;nslookup -->
<g id="edge3" class="edge">
<title>user_input&#45;&gt;nslookup</title>
<path fill="none" stroke="#000000" d="M154.2167,-215.9891C157.1906,-206.7704 160.127,-197.6679 162.7172,-189.6387"/>
<polygon fill="#000000" stroke="#000000" points="166.0504,-190.7061 165.7896,-180.1145 159.3885,-188.557 166.0504,-190.7061"/>
</g>
<!-- sublist3r -->
<g id="node8" class="node">
<title>sublist3r</title>
<ellipse fill="none" stroke="#000000" cx="280.6333" cy="-162" rx="44.0987" ry="18"/>
<text text-anchor="middle" x="280.6333" y="-157.8" font-family="Times,serif" font-size="14.00" fill="#000000">sublist3r</text>
</g>
<!-- user_input&#45;&gt;sublist3r -->
<g id="edge8" class="edge">
<title>user_input&#45;&gt;sublist3r</title>
<path fill="none" stroke="#000000" d="M195.7044,-228.7187C215.2676,-213.3502 236.0055,-197.0589 252.0917,-184.4218"/>
<polygon fill="#000000" stroke="#000000" points="254.3473,-187.1007 260.0488,-178.1708 250.0229,-181.5962 254.3473,-187.1007"/>
</g>
<!-- nslookup_masscan -->
<g id="node6" class="node">
<title>nslookup_masscan</title>
<polygon fill="none" stroke="#000000" points="288.9148,-108 216.3517,-108 216.3517,-72 288.9148,-72 288.9148,-108"/>
<text text-anchor="middle" x="252.6333" y="-85.8" font-family="Times,serif" font-size="14.00" fill="#000000">ipv4, ipv6</text>
</g>
<!-- nslookup&#45;&gt;nslookup_masscan -->
<g id="edge4" class="edge">
<title>nslookup&#45;&gt;nslookup_masscan</title>
<path fill="none" stroke="#000000" d="M190.4199,-145.3008C200.5964,-136.255 213.3697,-124.901 224.6903,-114.8382"/>
<polygon fill="#000000" stroke="#000000" points="227.097,-117.3818 232.2458,-108.1222 222.4464,-112.1499 227.097,-117.3818"/>
</g>
<!-- nslookup_nmap -->
<g id="node7" class="node">
<title>nslookup_nmap</title>
<polygon fill="none" stroke="#000000" points="197.9148,-108 125.3517,-108 125.3517,-72 197.9148,-72 197.9148,-108"/>
<text text-anchor="middle" x="161.6333" y="-85.8" font-family="Times,serif" font-size="14.00" fill="#000000">ipv4, ipv6</text>
</g>
<!-- nslookup&#45;&gt;nslookup_nmap -->
<g id="edge6" class="edge">
<title>nslookup&#45;&gt;nslookup_nmap</title>
<path fill="none" stroke="#000000" d="M169.1098,-143.8314C168.0403,-136.131 166.7686,-126.9743 165.58,-118.4166"/>
<polygon fill="#000000" stroke="#000000" points="169.0331,-117.8367 164.1907,-108.4133 162.0997,-118.7997 169.0331,-117.8367"/>
</g>
<!-- masscan -->
<g id="node5" class="node">
<title>masscan</title>
<ellipse fill="none" stroke="#000000" cx="252.6333" cy="-18" rx="43.9983" ry="18"/>
<text text-anchor="middle" x="252.6333" y="-13.8" font-family="Times,serif" font-size="14.00" fill="#000000">masscan</text>
</g>
<!-- nslookup_masscan&#45;&gt;masscan -->
<g id="edge5" class="edge">
<title>nslookup_masscan&#45;&gt;masscan</title>
<path fill="none" stroke="#000000" d="M252.6333,-71.8314C252.6333,-64.131 252.6333,-54.9743 252.6333,-46.4166"/>
<polygon fill="#000000" stroke="#000000" points="256.1334,-46.4132 252.6333,-36.4133 249.1334,-46.4133 256.1334,-46.4132"/>
</g>
<!-- nslookup_nmap&#45;&gt;nmap -->
<g id="edge7" class="edge">
<title>nslookup_nmap&#45;&gt;nmap</title>
<path fill="none" stroke="#000000" d="M153.306,-71.8314C149.6042,-63.7547 145.1681,-54.0761 141.0847,-45.1668"/>
<polygon fill="#000000" stroke="#000000" points="144.1919,-43.5458 136.8436,-35.9134 137.8284,-46.4624 144.1919,-43.5458"/>
</g>
</g>
</svg>
