<?xml version="1.0" encoding="UTF-8" standalone="no"?>
<!DOCTYPE svg PUBLIC "-//W3C//DTD SVG 1.1//EN"
 "http://www.w3.org/Graphics/SVG/1.1/DTD/svg11.dtd">
<!-- Generated by graphviz version 2.40.1 (20161225.0304)
 -->
<!-- Pages: 1 -->
<svg width="289pt" height="222pt"
 viewBox="0.00 0.00 289.24 221.60" xmlns="http://www.w3.org/2000/svg" xmlns:xlink="http://www.w3.org/1999/xlink">
<g id="graph0" class="graph" transform="scale(1 1) rotate(0) translate(4 217.6)">
<polygon fill="#ffffff" stroke="transparent" points="-4,4 -4,-217.6 285.2398,-217.6 285.2398,4 -4,4"/>
<!-- program1 -->
<g id="node1" class="node">
<title>program1</title>
<ellipse fill="none" stroke="#000000" cx="112.661" cy="-106.8" rx="48.6578" ry="18"/>
<text text-anchor="middle" x="112.661" y="-102.6" font-family="Times,serif" font-size="14.00" fill="#000000">program1</text>
</g>
<!-- program2 -->
<g id="node2" class="node">
<title>program2</title>
<ellipse fill="none" stroke="#000000" cx="79.661" cy="-18" rx="48.6578" ry="18"/>
<text text-anchor="middle" x="79.661" y="-13.8" font-family="Times,serif" font-size="14.00" fill="#000000">program2</text>
</g>
<!-- program1&#45;&gt;program2 -->
<g id="edge1" class="edge">
<title>program1&#45;&gt;program2</title>
<path fill="none" stroke="#000000" d="M70.0967,-98.0606C43.2074,-91.5782 12.0664,-81.9563 4.0102,-70.8 -7.67,-54.6254 9.9284,-41.6902 31.0776,-32.6715"/>
<polygon fill="#000000" stroke="#000000" points="32.5869,-35.8391 40.6166,-28.9272 30.0291,-29.3231 32.5869,-35.8391"/>
<text text-anchor="middle" x="48.9864" y="-58.2" font-family="Times,serif" font-size="14.00" fill="#000000">[IPv4, IPv6, IP]</text>
</g>
<!-- program4 -->
<g id="node3" class="node">
<title>program4</title>
<ellipse fill="none" stroke="#000000" cx="232.661" cy="-18" rx="48.6578" ry="18"/>
<text text-anchor="middle" x="232.661" y="-13.8" font-family="Times,serif" font-size="14.00" fill="#000000">program4</text>
</g>
<!-- program1&#45;&gt;program4 -->
<g id="edge2" class="edge">
<title>program1&#45;&gt;program4</title>
<path fill="none" stroke="#000000" d="M109.0275,-88.8414C107.8316,-77.6805 108.3921,-63.6671 116.0102,-54 124.2399,-43.5566 152.4241,-34.7024 179.0257,-28.3883"/>
<polygon fill="#000000" stroke="#000000" points="180.1252,-31.7276 189.0986,-26.0947 178.5711,-24.9023 180.1252,-31.7276"/>
<text text-anchor="middle" x="160.9864" y="-58.2" font-family="Times,serif" font-size="14.00" fill="#000000">[IPv4, IPv6, IP]</text>
</g>
<!-- program3 -->
<g id="node4" class="node">
<title>program3</title>
<ellipse fill="none" stroke="#000000" cx="169.661" cy="-195.6" rx="48.6578" ry="18"/>
<text text-anchor="middle" x="169.661" y="-191.4" font-family="Times,serif" font-size="14.00" fill="#000000">program3</text>
</g>
<!-- program3&#45;&gt;program1 -->
<g id="edge3" class="edge">
<title>program3&#45;&gt;program1</title>
<path fill="none" stroke="#000000" d="M148.9765,-179.168C142.8172,-173.4835 136.4742,-166.7346 131.8082,-159.6 126.8214,-151.975 122.9241,-142.8822 119.9854,-134.4089"/>
<polygon fill="#000000" stroke="#000000" points="123.3214,-133.3499 116.968,-124.8715 116.6475,-135.4615 123.3214,-133.3499"/>
<text text-anchor="middle" x="166.0874" y="-147" font-family="Times,serif" font-size="14.00" fill="#000000">[DOMAIN]</text>
</g>
<!-- program5 -->
<g id="node5" class="node">
<title>program5</title>
<ellipse fill="none" stroke="#000000" cx="227.661" cy="-106.8" rx="48.6578" ry="18"/>
<text text-anchor="middle" x="227.661" y="-102.6" font-family="Times,serif" font-size="14.00" fill="#000000">program5</text>
</g>
<!-- program3&#45;&gt;program5 -->
<g id="edge4" class="edge">
<title>program3&#45;&gt;program5</title>
<path fill="none" stroke="#000000" d="M184.7586,-178.1268C189.4373,-172.3866 194.4625,-165.8679 198.661,-159.6 204.0738,-151.5191 209.3811,-142.3413 213.9452,-133.93"/>
<polygon fill="#000000" stroke="#000000" points="217.1622,-135.3339 218.7484,-124.8584 210.9758,-132.0583 217.1622,-135.3339"/>
<text text-anchor="middle" x="241.0874" y="-147" font-family="Times,serif" font-size="14.00" fill="#000000">[DOMAIN]</text>
</g>
<!-- program5&#45;&gt;program2 -->
<g id="edge5" class="edge">
<title>program5&#45;&gt;program2</title>
<path fill="none" stroke="#000000" d="M223.9754,-88.7835C220.7347,-77.3094 214.8824,-62.9684 204.661,-54 193.6518,-44.3404 161.7095,-35.2276 132.8726,-28.5872"/>
<polygon fill="#000000" stroke="#000000" points="133.3643,-25.1108 122.8416,-26.3447 131.8371,-31.9422 133.3643,-25.1108"/>
<text text-anchor="middle" x="227.5432" y="-58.2" font-family="Times,serif" font-size="14.00" fill="#000000">[IP]</text>
</g>
<!-- program5&#45;&gt;program4 -->
<g id="edge6" class="edge">
<title>program5&#45;&gt;program4</title>
<path fill="none" stroke="#000000" d="M240.9321,-89.393C244.4812,-83.7606 247.8358,-77.2868 249.661,-70.8 251.9974,-62.496 250.6173,-53.5385 247.8354,-45.4017"/>
<polygon fill="#000000" stroke="#000000" points="250.9854,-43.8619 243.9026,-35.9825 244.5259,-46.559 250.9854,-43.8619"/>
<text text-anchor="middle" x="261.5432" y="-58.2" font-family="Times,serif" font-size="14.00" fill="#000000">[IP]</text>
</g>
</g>
</svg>
