<?xml version="1.0" encoding="UTF-8" standalone="no"?>
<!DOCTYPE svg PUBLIC "-//W3C//DTD SVG 1.1//EN"
 "http://www.w3.org/Graphics/SVG/1.1/DTD/svg11.dtd">
<!-- Generated by graphviz version 2.40.1 (20161225.0304)
 -->
<!-- Pages: 1 -->
<svg width="333pt" height="266pt"
 viewBox="0.00 0.00 332.93 265.60" xmlns="http://www.w3.org/2000/svg" xmlns:xlink="http://www.w3.org/1999/xlink">
<g id="graph0" class="graph" transform="scale(1 1) rotate(0) translate(4 261.6)">
<polygon fill="#ffffff" stroke="transparent" points="-4,4 -4,-261.6 328.9321,-261.6 328.9321,4 -4,4"/>
<!-- user_input -->
<g id="node1" class="node">
<title>user_input</title>
<polygon fill="none" stroke="#000000" points="195.5245,-257.4019 73.742,-257.4019 73.742,-216.1981 195.5245,-216.1981 195.5245,-257.4019"/>
<text text-anchor="middle" x="134.6333" y="-241" font-family="Times,serif" font-size="14.00" fill="#000000">На вход:</text>
<text text-anchor="middle" x="134.6333" y="-224.2" font-family="Times,serif" font-size="14.00" fill="#000000">[domain]</text>
</g>
<!-- amass -->
<g id="node2" class="node">
<title>amass</title>
<ellipse fill="none" stroke="#000000" cx="34.6333" cy="-162" rx="34.767" ry="18"/>
<text text-anchor="middle" x="34.6333" y="-157.8" font-family="Times,serif" font-size="14.00" fill="#000000">amass</text>
</g>
<!-- user_input&#45;&gt;amass -->
<g id="edge1" class="edge">
<title>user_input&#45;&gt;amass</title>
<path fill="none" stroke="#000000" d="M107.0431,-216.1626C93.2551,-205.8491 76.6004,-193.3915 62.7417,-183.0251"/>
<polygon fill="#000000" stroke="#000000" points="64.6287,-180.0658 54.5246,-176.8787 60.4358,-185.6712 64.6287,-180.0658"/>
</g>
<!-- nmap -->
<g id="node3" class="node">
<title>nmap</title>
<ellipse fill="none" stroke="#000000" cx="128.6333" cy="-18" rx="32.4846" ry="18"/>
<text text-anchor="middle" x="128.6333" y="-13.8" font-family="Times,serif" font-size="14.00" fill="#000000">nmap</text>
</g>
<!-- user_input&#45;&gt;nmap -->
<g id="edge2" class="edge">
<title>user_input&#45;&gt;nmap</title>
<path fill="none" stroke="#000000" d="M126.397,-216.1276C122.6042,-205.5146 118.5305,-192.2675 116.6333,-180 109.2968,-132.564 111.3956,-119.7134 116.6333,-72 117.5764,-63.4083 119.3395,-54.1834 121.2296,-45.8325"/>
<polygon fill="#000000" stroke="#000000" points="124.6984,-46.3773 123.6393,-35.8355 117.8933,-44.7369 124.6984,-46.3773"/>
</g>
<!-- nslookup -->
<g id="node4" class="node">
<title>nslookup</title>
<ellipse fill="none" stroke="#000000" cx="171.6333" cy="-162" rx="46.3932" ry="18"/>
<text text-anchor="middle" x="171.6333" y="-157.8" font-family="Times,serif" font-size="14.00" fill="#000000">nslookup</text>
</g>
<!-- user_input&#45;&gt;nslookup -->
<g id="edge3" class="edge">
<title>user_input&#45;&gt;nslookup</title>
<path fill="none" stroke="#000000" d="M144.9398,-215.964C149.0854,-207.5832 153.9189,-197.8118 158.3249,-188.9045"/>
<polygon fill="#000000" stroke="#000000" points="161.5887,-190.2003 162.8853,-179.6851 155.3143,-187.0966 161.5887,-190.2003"/>
</g>
<!-- sublist3r -->
<g id="node8" class="node">
<title>sublist3r</title>
<ellipse fill="none" stroke="#000000" cx="280.6333" cy="-162" rx="44.0987" ry="18"/>
<text text-anchor="middle" x="280.6333" y="-157.8" font-family="Times,serif" font-size="14.00" fill="#000000">sublist3r</text>
</g>
<!-- user_input&#45;&gt;sublist3r -->
<g id="edge8" class="edge">
<title>user_input&#45;&gt;sublist3r</title>
<path fill="none" stroke="#000000" d="M174.9149,-216.1626C196.531,-205.088 222.973,-191.541 244.0048,-180.7658"/>
<polygon fill="#000000" stroke="#000000" points="245.6491,-183.8561 252.9531,-176.1813 242.4573,-177.6261 245.6491,-183.8561"/>
</g>
<!-- nslookup_masscan -->
<g id="node6" class="node">
<title>nslookup_masscan</title>
<polygon fill="none" stroke="#000000" points="288.9148,-108 216.3517,-108 216.3517,-72 288.9148,-72 288.9148,-108"/>
<text text-anchor="middle" x="252.6333" y="-85.8" font-family="Times,serif" font-size="14.00" fill="#000000">ipv4, ipv6</text>
</g>
<!-- nslookup&#45;&gt;nslookup_masscan -->
<g id="edge4" class="edge">
<title>nslookup&#45;&gt;nslookup_masscan</title>
<path fill="none" stroke="#000000" d="M190.4199,-145.3008C200.5964,-136.255 213.3697,-124.901 224.6903,-114.8382"/>
<polygon fill="#000000" stroke="#000000" points="227.097,-117.3818 232.2458,-108.1222 222.4464,-112.1499 227.097,-117.3818"/>
</g>
<!-- nslookup_nmap -->
<g id="node7" class="node">
<title>nslookup_nmap</title>
<polygon fill="none" stroke="#000000" points="197.9148,-108 125.3517,-108 125.3517,-72 197.9148,-72 197.9148,-108"/>
<text text-anchor="middle" x="161.6333" y="-85.8" font-family="Times,serif" font-size="14.00" fill="#000000">ipv4, ipv6</text>
</g>
<!-- nslookup&#45;&gt;nslookup_nmap -->
<g id="edge6" class="edge">
<title>nslookup&#45;&gt;nslookup_nmap</title>
<path fill="none" stroke="#000000" d="M169.1098,-143.8314C168.0403,-136.131 166.7686,-126.9743 165.58,-118.4166"/>
<polygon fill="#000000" stroke="#000000" points="169.0331,-117.8367 164.1907,-108.4133 162.0997,-118.7997 169.0331,-117.8367"/>
</g>
<!-- masscan -->
<g id="node5" class="node">
<title>masscan</title>
<ellipse fill="none" stroke="#000000" cx="252.6333" cy="-18" rx="43.9983" ry="18"/>
<text text-anchor="middle" x="252.6333" y="-13.8" font-family="Times,serif" font-size="14.00" fill="#000000">masscan</text>
</g>
<!-- nslookup_masscan&#45;&gt;masscan -->
<g id="edge5" class="edge">
<title>nslookup_masscan&#45;&gt;masscan</title>
<path fill="none" stroke="#000000" d="M252.6333,-71.8314C252.6333,-64.131 252.6333,-54.9743 252.6333,-46.4166"/>
<polygon fill="#000000" stroke="#000000" points="256.1334,-46.4132 252.6333,-36.4133 249.1334,-46.4133 256.1334,-46.4132"/>
</g>
<!-- nslookup_nmap&#45;&gt;nmap -->
<g id="edge7" class="edge">
<title>nslookup_nmap&#45;&gt;nmap</title>
<path fill="none" stroke="#000000" d="M153.306,-71.8314C149.6042,-63.7547 145.1681,-54.0761 141.0847,-45.1668"/>
<polygon fill="#000000" stroke="#000000" points="144.1919,-43.5458 136.8436,-35.9134 137.8284,-46.4624 144.1919,-43.5458"/>
</g>
</g>
</svg>
