<?xml version="1.0" encoding="UTF-8" standalone="no"?>
<!DOCTYPE svg PUBLIC "-//W3C//DTD SVG 1.1//EN"
 "http://www.w3.org/Graphics/SVG/1.1/DTD/svg11.dtd">
<!-- Generated by graphviz version 2.40.1 (20161225.0304)
 -->
<!-- Pages: 1 -->
<svg width="406pt" height="133pt"
 viewBox="0.00 0.00 405.93 132.80" xmlns="http://www.w3.org/2000/svg" xmlns:xlink="http://www.w3.org/1999/xlink">
<g id="graph0" class="graph" transform="scale(1 1) rotate(0) translate(4 128.8)">
<polygon fill="#ffffff" stroke="transparent" points="-4,4 -4,-128.8 401.9321,-128.8 401.9321,4 -4,4"/>
<!-- amass -->
<g id="node1" class="node">
<title>amass</title>
<ellipse fill="none" stroke="#000000" cx="34.6333" cy="-106.8" rx="34.767" ry="18"/>
<text text-anchor="middle" x="34.6333" y="-102.6" font-family="Times,serif" font-size="14.00" fill="#000000">amass</text>
</g>
<!-- dirsearch -->
<g id="node2" class="node">
<title>dirsearch</title>
<ellipse fill="none" stroke="#000000" cx="133.6333" cy="-106.8" rx="46.345" ry="18"/>
<text text-anchor="middle" x="133.6333" y="-102.6" font-family="Times,serif" font-size="14.00" fill="#000000">dirsearch</text>
</g>
<!-- masscan -->
<g id="node3" class="node">
<title>masscan</title>
<ellipse fill="none" stroke="#000000" cx="197.6333" cy="-18" rx="43.9983" ry="18"/>
<text text-anchor="middle" x="197.6333" y="-13.8" font-family="Times,serif" font-size="14.00" fill="#000000">masscan</text>
</g>
<!-- nmap -->
<g id="node4" class="node">
<title>nmap</title>
<ellipse fill="none" stroke="#000000" cx="291.6333" cy="-18" rx="32.4846" ry="18"/>
<text text-anchor="middle" x="291.6333" y="-13.8" font-family="Times,serif" font-size="14.00" fill="#000000">nmap</text>
</g>
<!-- nslookup -->
<g id="node5" class="node">
<title>nslookup</title>
<ellipse fill="none" stroke="#000000" cx="244.6333" cy="-106.8" rx="46.3932" ry="18"/>
<text text-anchor="middle" x="244.6333" y="-102.6" font-family="Times,serif" font-size="14.00" fill="#000000">nslookup</text>
</g>
<!-- nslookup&#45;&gt;masscan -->
<g id="edge1" class="edge">
<title>nslookup&#45;&gt;masscan</title>
<path fill="none" stroke="#000000" d="M221.0458,-91.2917C214.2974,-85.6567 207.6592,-78.7035 203.5309,-70.8 199.6274,-63.327 197.7596,-54.4592 196.9714,-46.1453"/>
<polygon fill="#000000" stroke="#000000" points="200.4624,-45.8745 196.4784,-36.0573 193.4708,-46.2162 200.4624,-45.8745"/>
<text text-anchor="middle" x="235.6845" y="-58.2" font-family="Times,serif" font-size="14.00" fill="#000000">[ipv4, ipv6]</text>
</g>
<!-- nslookup&#45;&gt;nmap -->
<g id="edge2" class="edge">
<title>nslookup&#45;&gt;nmap</title>
<path fill="none" stroke="#000000" d="M257.8702,-89.3341C261.9155,-83.5943 266.1985,-77.074 269.6333,-70.8 274.0205,-62.7862 278.0957,-53.7132 281.5165,-45.3772"/>
<polygon fill="#000000" stroke="#000000" points="284.7871,-46.6241 285.2112,-36.0378 278.278,-44.0491 284.7871,-46.6241"/>
<text text-anchor="middle" x="309.6845" y="-58.2" font-family="Times,serif" font-size="14.00" fill="#000000">[ipv4, ipv6]</text>
</g>
<!-- sublist3r -->
<g id="node6" class="node">
<title>sublist3r</title>
<ellipse fill="none" stroke="#000000" cx="353.6333" cy="-106.8" rx="44.0987" ry="18"/>
<text text-anchor="middle" x="353.6333" y="-102.6" font-family="Times,serif" font-size="14.00" fill="#000000">sublist3r</text>
</g>
</g>
</svg>
