<?xml version="1.0" encoding="UTF-8" standalone="no"?>
<!DOCTYPE svg PUBLIC "-//W3C//DTD SVG 1.1//EN"
 "http://www.w3.org/Graphics/SVG/1.1/DTD/svg11.dtd">
<!-- Generated by graphviz version 2.40.1 (20161225.0304)
 -->
<!-- Pages: 1 -->
<svg width="651pt" height="410pt"
 viewBox="0.00 0.00 650.72 409.60" xmlns="http://www.w3.org/2000/svg" xmlns:xlink="http://www.w3.org/1999/xlink">
<g id="graph0" class="graph" transform="scale(1 1) rotate(0) translate(4 405.6)">
<polygon fill="#ffffff" stroke="transparent" points="-4,4 -4,-405.6 646.7162,-405.6 646.7162,4 -4,4"/>
<!-- user_input -->
<g id="node1" class="node">
<title>user_input</title>
<polygon fill="none" stroke="#000000" points="513.3085,-401.4019 391.5261,-401.4019 391.5261,-360.1981 513.3085,-360.1981 513.3085,-401.4019"/>
<text text-anchor="middle" x="452.4173" y="-385" font-family="Times,serif" font-size="14.00" fill="#000000">На вход:</text>
<text text-anchor="middle" x="452.4173" y="-368.2" font-family="Times,serif" font-size="14.00" fill="#000000">[domain]</text>
</g>
<!-- amass -->
<g id="node2" class="node">
<title>amass</title>
<ellipse fill="none" stroke="#000000" cx="352.4173" cy="-306" rx="34.767" ry="18"/>
<text text-anchor="middle" x="352.4173" y="-301.8" font-family="Times,serif" font-size="14.00" fill="#000000">amass</text>
</g>
<!-- user_input&#45;&gt;amass -->
<g id="edge1" class="edge">
<title>user_input&#45;&gt;amass</title>
<path fill="none" stroke="#000000" d="M424.8271,-360.1626C411.0391,-349.8491 394.3845,-337.3915 380.5257,-327.0251"/>
<polygon fill="#000000" stroke="#000000" points="382.4127,-324.0658 372.3086,-320.8787 378.2199,-329.6712 382.4127,-324.0658"/>
</g>
<!-- nmap -->
<g id="node3" class="node">
<title>nmap</title>
<ellipse fill="none" stroke="#000000" cx="415.4173" cy="-162" rx="32.4846" ry="18"/>
<text text-anchor="middle" x="415.4173" y="-157.8" font-family="Times,serif" font-size="14.00" fill="#000000">nmap</text>
</g>
<!-- user_input&#45;&gt;nmap -->
<g id="edge2" class="edge">
<title>user_input&#45;&gt;nmap</title>
<path fill="none" stroke="#000000" d="M444.7843,-360.0162C441.1453,-349.3748 437.0271,-336.1359 434.4173,-324 424.4684,-277.736 419.4121,-222.8418 417.1003,-190.298"/>
<polygon fill="#000000" stroke="#000000" points="420.5819,-189.9055 416.4183,-180.163 413.5977,-190.3754 420.5819,-189.9055"/>
</g>
<!-- nslookup -->
<g id="node8" class="node">
<title>nslookup</title>
<ellipse fill="none" stroke="#000000" cx="489.4173" cy="-306" rx="46.3932" ry="18"/>
<text text-anchor="middle" x="489.4173" y="-301.8" font-family="Times,serif" font-size="14.00" fill="#000000">nslookup</text>
</g>
<!-- user_input&#45;&gt;nslookup -->
<g id="edge7" class="edge">
<title>user_input&#45;&gt;nslookup</title>
<path fill="none" stroke="#000000" d="M462.7239,-359.964C466.8695,-351.5832 471.7029,-341.8118 476.1089,-332.9045"/>
<polygon fill="#000000" stroke="#000000" points="479.3727,-334.2003 480.6693,-323.6851 473.0983,-331.0966 479.3727,-334.2003"/>
</g>
<!-- sublist3r -->
<g id="node11" class="node">
<title>sublist3r</title>
<ellipse fill="none" stroke="#000000" cx="598.4173" cy="-306" rx="44.0987" ry="18"/>
<text text-anchor="middle" x="598.4173" y="-301.8" font-family="Times,serif" font-size="14.00" fill="#000000">sublist3r</text>
</g>
<!-- user_input&#45;&gt;sublist3r -->
<g id="edge12" class="edge">
<title>user_input&#45;&gt;sublist3r</title>
<path fill="none" stroke="#000000" d="M492.6989,-360.1626C514.3151,-349.088 540.7571,-335.541 561.7888,-324.7658"/>
<polygon fill="#000000" stroke="#000000" points="563.4331,-327.8561 570.7372,-320.1813 560.2413,-321.6261 563.4331,-327.8561"/>
</g>
<!-- nmap_masscan -->
<g id="node5" class="node">
<title>nmap_masscan</title>
<polygon fill="none" stroke="#000000" points="547.752,-108 283.0826,-108 283.0826,-72 547.752,-72 547.752,-108"/>
<text text-anchor="middle" x="415.4173" y="-85.8" font-family="Times,serif" font-size="14.00" fill="#000000">state_port, ipv4, ipv6, port, service, protocol</text>
</g>
<!-- nmap&#45;&gt;nmap_masscan -->
<g id="edge3" class="edge">
<title>nmap&#45;&gt;nmap_masscan</title>
<path fill="none" stroke="#000000" d="M415.4173,-143.8314C415.4173,-136.131 415.4173,-126.9743 415.4173,-118.4166"/>
<polygon fill="#000000" stroke="#000000" points="418.9174,-118.4132 415.4173,-108.4133 411.9174,-118.4133 418.9174,-118.4132"/>
</g>
<!-- nmap_telnet -->
<g id="node7" class="node">
<title>nmap_telnet</title>
<polygon fill="none" stroke="#000000" points="264.752,-108 .0826,-108 .0826,-72 264.752,-72 264.752,-108"/>
<text text-anchor="middle" x="132.4173" y="-85.8" font-family="Times,serif" font-size="14.00" fill="#000000">state_port, ipv4, ipv6, port, service, protocol</text>
</g>
<!-- nmap&#45;&gt;nmap_telnet -->
<g id="edge5" class="edge">
<title>nmap&#45;&gt;nmap_telnet</title>
<path fill="none" stroke="#000000" d="M385.6662,-154.4308C345.0854,-144.1064 270.8374,-125.2164 213.1876,-110.5493"/>
<polygon fill="#000000" stroke="#000000" points="213.9129,-107.1224 203.3587,-108.0487 212.1869,-113.9063 213.9129,-107.1224"/>
</g>
<!-- masscan -->
<g id="node4" class="node">
<title>masscan</title>
<ellipse fill="none" stroke="#000000" cx="495.4173" cy="-18" rx="43.9983" ry="18"/>
<text text-anchor="middle" x="495.4173" y="-13.8" font-family="Times,serif" font-size="14.00" fill="#000000">masscan</text>
</g>
<!-- nmap_masscan&#45;&gt;masscan -->
<g id="edge4" class="edge">
<title>nmap_masscan&#45;&gt;masscan</title>
<path fill="none" stroke="#000000" d="M435.6047,-71.8314C445.8849,-62.5792 458.501,-51.2247 469.492,-41.3327"/>
<polygon fill="#000000" stroke="#000000" points="472.0599,-43.7305 477.1514,-34.4393 467.3771,-38.5274 472.0599,-43.7305"/>
</g>
<!-- telnet -->
<g id="node6" class="node">
<title>telnet</title>
<ellipse fill="none" stroke="#000000" cx="132.4173" cy="-18" rx="32.4788" ry="18"/>
<text text-anchor="middle" x="132.4173" y="-13.8" font-family="Times,serif" font-size="14.00" fill="#000000">telnet</text>
</g>
<!-- nmap_telnet&#45;&gt;telnet -->
<g id="edge6" class="edge">
<title>nmap_telnet&#45;&gt;telnet</title>
<path fill="none" stroke="#000000" d="M132.4173,-71.8314C132.4173,-64.131 132.4173,-54.9743 132.4173,-46.4166"/>
<polygon fill="#000000" stroke="#000000" points="135.9174,-46.4132 132.4173,-36.4133 128.9174,-46.4133 135.9174,-46.4132"/>
</g>
<!-- nslookup_masscan -->
<g id="node9" class="node">
<title>nslookup_masscan</title>
<polygon fill="none" stroke="#000000" points="604.6988,-180 532.1358,-180 532.1358,-144 604.6988,-144 604.6988,-180"/>
<text text-anchor="middle" x="568.4173" y="-157.8" font-family="Times,serif" font-size="14.00" fill="#000000">ipv4, ipv6</text>
</g>
<!-- nslookup&#45;&gt;nslookup_masscan -->
<g id="edge8" class="edge">
<title>nslookup&#45;&gt;nslookup_masscan</title>
<path fill="none" stroke="#000000" d="M503.8208,-288.7017C511.9553,-278.4356 521.9553,-264.9356 529.4173,-252 540.9763,-231.9622 551.2495,-207.848 558.3468,-189.6259"/>
<polygon fill="#000000" stroke="#000000" points="561.659,-190.7628 561.9509,-180.1719 555.1182,-188.2691 561.659,-190.7628"/>
</g>
<!-- nslookup_nmap -->
<g id="node10" class="node">
<title>nslookup_nmap</title>
<polygon fill="none" stroke="#000000" points="520.6988,-252 448.1358,-252 448.1358,-216 520.6988,-216 520.6988,-252"/>
<text text-anchor="middle" x="484.4173" y="-229.8" font-family="Times,serif" font-size="14.00" fill="#000000">ipv4, ipv6</text>
</g>
<!-- nslookup&#45;&gt;nslookup_nmap -->
<g id="edge10" class="edge">
<title>nslookup&#45;&gt;nslookup_nmap</title>
<path fill="none" stroke="#000000" d="M488.1556,-287.8314C487.6208,-280.131 486.985,-270.9743 486.3907,-262.4166"/>
<polygon fill="#000000" stroke="#000000" points="489.8805,-262.1467 485.696,-252.4133 482.8973,-262.6317 489.8805,-262.1467"/>
</g>
<!-- nslookup_masscan&#45;&gt;masscan -->
<g id="edge9" class="edge">
<title>nslookup_masscan&#45;&gt;masscan</title>
<path fill="none" stroke="#000000" d="M569.5989,-143.9758C570.0577,-124.9642 568.4954,-94.6784 556.4173,-72 549.6887,-59.3662 538.7469,-48.2821 527.9746,-39.4968"/>
<polygon fill="#000000" stroke="#000000" points="529.9023,-36.5639 519.8426,-33.2392 525.6334,-42.1115 529.9023,-36.5639"/>
</g>
<!-- nslookup_nmap&#45;&gt;nmap -->
<g id="edge11" class="edge">
<title>nslookup_nmap&#45;&gt;nmap</title>
<path fill="none" stroke="#000000" d="M467.0057,-215.8314C458.0978,-206.5362 447.1565,-195.1192 437.6459,-185.195"/>
<polygon fill="#000000" stroke="#000000" points="440.1553,-182.755 430.7092,-177.9568 435.1013,-187.5984 440.1553,-182.755"/>
</g>
</g>
</svg>
