<?xml version="1.0" encoding="UTF-8" standalone="no"?>
<!DOCTYPE svg PUBLIC "-//W3C//DTD SVG 1.1//EN"
 "http://www.w3.org/Graphics/SVG/1.1/DTD/svg11.dtd">
<!-- Generated by graphviz version 2.40.1 (20161225.0304)
 -->
<!-- Pages: 1 -->
<svg width="338pt" height="222pt"
 viewBox="0.00 0.00 338.03 221.60" xmlns="http://www.w3.org/2000/svg" xmlns:xlink="http://www.w3.org/1999/xlink">
<g id="graph0" class="graph" transform="scale(1 1) rotate(0) translate(4 217.6)">
<polygon fill="#ffffff" stroke="transparent" points="-4,4 -4,-217.6 334.0276,-217.6 334.0276,4 -4,4"/>
<!-- program1 -->
<g id="node1" class="node">
<title>program1</title>
<ellipse fill="none" stroke="#000000" cx="129.2632" cy="-106.8" rx="48.6578" ry="18"/>
<text text-anchor="middle" x="129.2632" y="-102.6" font-family="Times,serif" font-size="14.00" fill="#000000">program1</text>
</g>
<!-- program2 -->
<g id="node2" class="node">
<title>program2</title>
<ellipse fill="none" stroke="#000000" cx="101.2632" cy="-18" rx="48.6578" ry="18"/>
<text text-anchor="middle" x="101.2632" y="-13.8" font-family="Times,serif" font-size="14.00" fill="#000000">program2</text>
</g>
<!-- program1&#45;&gt;program2 -->
<g id="edge1" class="edge">
<title>program1&#45;&gt;program2</title>
<path fill="none" stroke="#000000" d="M84.4891,-99.6633C52.8479,-93.5999 14.3942,-83.8067 4.6124,-70.8 -11.0463,-49.9789 17.3428,-36.3643 47.3273,-28.1832"/>
<polygon fill="#000000" stroke="#000000" points="48.231,-31.5649 57.0648,-25.7157 46.5114,-24.7794 48.231,-31.5649"/>
<text text-anchor="middle" x="56.5886" y="-58.2" font-family="Times,serif" font-size="14.00" fill="#000000">[IPv4, IPv6, IP]_2</text>
</g>
<!-- program4 -->
<g id="node3" class="node">
<title>program4</title>
<ellipse fill="none" stroke="#000000" cx="221.2632" cy="-18" rx="48.6578" ry="18"/>
<text text-anchor="middle" x="221.2632" y="-13.8" font-family="Times,serif" font-size="14.00" fill="#000000">program4</text>
</g>
<!-- program1&#45;&gt;program4 -->
<g id="edge2" class="edge">
<title>program1&#45;&gt;program4</title>
<path fill="none" stroke="#000000" d="M125.0315,-88.6242C123.5445,-77.6545 123.6868,-63.9268 130.6124,-54 136.0167,-46.2538 153.9244,-38.4226 172.4124,-32.0514"/>
<polygon fill="#000000" stroke="#000000" points="173.6728,-35.3212 182.0702,-28.861 171.477,-28.6745 173.6728,-35.3212"/>
<text text-anchor="middle" x="182.5886" y="-58.2" font-family="Times,serif" font-size="14.00" fill="#000000">[IPv4, IPv6, IP]_2</text>
</g>
<!-- program3 -->
<g id="node4" class="node">
<title>program3</title>
<ellipse fill="none" stroke="#000000" cx="192.2632" cy="-195.6" rx="48.6578" ry="18"/>
<text text-anchor="middle" x="192.2632" y="-191.4" font-family="Times,serif" font-size="14.00" fill="#000000">program3</text>
</g>
<!-- program3&#45;&gt;program1 -->
<g id="edge3" class="edge">
<title>program3&#45;&gt;program1</title>
<path fill="none" stroke="#000000" d="M166.9606,-179.9674C159.4864,-174.3257 151.8574,-167.4 146.4104,-159.6 141.3104,-152.2969 137.658,-143.3852 135.0725,-134.9781"/>
<polygon fill="#000000" stroke="#000000" points="138.3976,-133.865 132.4225,-125.1158 131.6374,-135.6815 138.3976,-133.865"/>
<text text-anchor="middle" x="187.6896" y="-147" font-family="Times,serif" font-size="14.00" fill="#000000">[DOMAIN]_2</text>
</g>
<!-- program5 -->
<g id="node5" class="node">
<title>program5</title>
<ellipse fill="none" stroke="#000000" cx="255.2632" cy="-106.8" rx="48.6578" ry="18"/>
<text text-anchor="middle" x="255.2632" y="-102.6" font-family="Times,serif" font-size="14.00" fill="#000000">program5</text>
</g>
<!-- program3&#45;&gt;program5 -->
<g id="edge4" class="edge">
<title>program3&#45;&gt;program5</title>
<path fill="none" stroke="#000000" d="M210.7768,-178.554C216.4391,-172.8367 222.4394,-166.2235 227.2632,-159.6 233.0327,-151.6779 238.3564,-142.414 242.7779,-133.8769"/>
<polygon fill="#000000" stroke="#000000" points="246.0438,-135.1697 247.3622,-124.6572 239.7759,-132.0531 246.0438,-135.1697"/>
<text text-anchor="middle" x="277.6896" y="-147" font-family="Times,serif" font-size="14.00" fill="#000000">[DOMAIN]_2</text>
</g>
<!-- program5&#45;&gt;program2 -->
<g id="edge5" class="edge">
<title>program5&#45;&gt;program2</title>
<path fill="none" stroke="#000000" d="M252.0221,-88.7007C249.0423,-77.1916 243.4713,-62.8427 233.2632,-54 208.9829,-32.9674 194.2471,-44.4792 163.2632,-36 158.6416,-34.7352 153.8345,-33.3909 149.0329,-32.0289"/>
<polygon fill="#000000" stroke="#000000" points="149.8226,-28.6145 139.2456,-29.2281 147.8967,-35.3443 149.8226,-28.6145"/>
<text text-anchor="middle" x="262.1454" y="-58.2" font-family="Times,serif" font-size="14.00" fill="#000000">[IP]_2</text>
</g>
<!-- program5&#45;&gt;program4 -->
<g id="edge6" class="edge">
<title>program5&#45;&gt;program4</title>
<path fill="none" stroke="#000000" d="M278.0754,-90.7316C289.7631,-80.4415 300.0542,-66.6857 292.2632,-54 286.8929,-45.2558 278.6651,-38.5555 269.6891,-33.4491"/>
<polygon fill="#000000" stroke="#000000" points="271.0492,-30.2157 260.5418,-28.8573 267.9087,-36.4717 271.0492,-30.2157"/>
<text text-anchor="middle" x="312.1454" y="-58.2" font-family="Times,serif" font-size="14.00" fill="#000000">[IP]_2</text>
</g>
</g>
</svg>
